<svg width="250" height="250" viewBox="0 0 250 250" fill="none" xmlns="http://www.w3.org/2000/svg">
<rect width="250" height="250" rx="50" fill="white"/>
<path d="M31 125C31 99.0426 52.0426 78 78 78H172C197.957 78 219 99.0426 219 125V125C219 150.957 197.957 172 172 172H78C52.0426 172 31 150.957 31 125V125Z" fill="#35C759"/>
<path d="M212.163 125C212.163 147.182 194.181 165.164 172 165.164C149.818 165.164 131.836 147.182 131.836 125C131.836 102.818 149.818 84.8364 172 84.8364C194.181 84.8364 212.163 102.818 212.163 125Z" fill="white"/>
</svg>
